<?xml version="1.0" encoding="UTF-8" standalone="no"?>
<!-- Created with Inkscape (http://www.inkscape.org/) -->

<svg
   width="31.855742mm"
   height="32.330685mm"
   viewBox="0 0 31.855742 32.330685"
   version="1.1"
   id="svg1"
   xml:space="preserve"
   xmlns:inkscape="http://www.inkscape.org/namespaces/inkscape"
   xmlns:sodipodi="http://sodipodi.sourceforge.net/DTD/sodipodi-0.dtd"
   xmlns="http://www.w3.org/2000/svg"
   xmlns:svg="http://www.w3.org/2000/svg"><sodipodi:namedview
     id="namedview1"
     pagecolor="#ffffff"
     bordercolor="#000000"
     borderopacity="0.25"
     inkscape:showpageshadow="2"
     inkscape:pageopacity="0.0"
     inkscape:pagecheckerboard="0"
     inkscape:deskcolor="#d1d1d1"
     inkscape:document-units="mm" /><defs
     id="defs1" /><g
     inkscape:label="Layer 1"
     inkscape:groupmode="layer"
     id="layer1"
     transform="translate(-150.4697,-68.772383)"><g
       id="g77"
       transform="translate(-21.793515,-25.172355)"><path
         id="path76"
         style="fill:#1dcbec;fill-opacity:1;stroke:#00abd4;stroke-width:2.94776;stroke-linecap:round;stroke-linejoin:round;stroke-opacity:1;paint-order:stroke markers fill"
         inkscape:transform-center-x="3.1924575"
         inkscape:transform-center-y="-1.896571"
         d="m 200.69667,120.50728 c -0.45472,0.5188 -1.59607,0.87968 -1.59607,0.87968 l -14.78722,3.35037 c 0,0 -0.76389,0.15586 -1.22967,-0.0443 -0.43432,-0.18644 -0.97875,-0.83828 -0.97875,-0.83828 l -8.03331,-13.49398 c 0,0 -0.37652,-0.77504 -0.32696,-1.3161 0.0436,-0.47557 0.43754,-1.1619 0.43754,-1.1619 l 10.38629,-11.85 c 0,0 0.60628,-0.4038 1.11411,-0.51886 0.4754,-0.10771 1.25929,-0.079 1.25929,-0.079 l 14.13135,6.06663 c 0,0 0.79694,0.58667 1.12285,1.13414 0.34502,0.57956 0.44895,1.63488 0.44895,1.63488 l -1.35028,14.7403 c 0,0 -0.17478,1.01342 -0.59812,1.49642 z"
         sodipodi:nodetypes="sccsccsccsccsccs" /><path
         id="path70"
         style="fill:#ffffff;fill-opacity:1;stroke:none;stroke-width:2.64583;stroke-linecap:round;stroke-linejoin:round;stroke-dasharray:none;stroke-opacity:1;paint-order:stroke markers fill"
         inkscape:transform-center-x="1.8860853"
         inkscape:transform-center-y="-4.5297342"
         d="m 186.7749,100.45774 -1.58285,2.80706 1.79162,2.95693 c 0,0 -0.62707,0.055 -0.93483,0.0775 -0.19917,0.0146 -0.51374,-0.0819 -0.70073,0.10697 -0.1566,0.15816 -0.0857,0.50468 -0.0646,0.72399 0.024,0.24975 -0.0708,0.48145 -0.14107,0.61546 l -2.52491,-1.68258 -2.91404,1.28312 1.6397,2.77451 3.45663,-0.0739 c 0,0 -0.26612,0.57074 -0.40049,0.84853 -0.087,0.17977 -0.3274,0.40407 -0.25735,0.66042 0.0587,0.2147 0.39381,0.32669 0.59428,0.41807 0.22811,0.10396 0.38153,0.30153 0.46251,0.42943 l -2.71974,1.34617 -0.34571,3.16466 3.22306,-0.0331 1.6645,-3.02979 c 0,0 0.36094,0.51575 0.53433,0.77102 0.11219,0.16523 0.18634,0.48542 0.44338,0.55293 0.21528,0.0565 0.47951,-0.17748 0.65888,-0.3054 0.20417,-0.14563 0.45235,-0.17988 0.60358,-0.18604 l -0.1943,3.02824 2.5678,1.88154 1.58285,-2.80707 -1.79162,-2.95692 c 0,0 0.62706,-0.055 0.93482,-0.0775 0.19919,-0.0145 0.51374,0.0819 0.70073,-0.10697 0.15658,-0.15818 0.0857,-0.50417 0.0646,-0.72347 -0.024,-0.24982 0.0708,-0.48198 0.14108,-0.61598 l 2.52491,1.68258 2.91403,-1.28312 -1.64021,-2.774 -3.45612,0.0734 c 0,0 0.26612,-0.57073 0.40049,-0.84852 0.087,-0.17978 0.3274,-0.40407 0.25735,-0.66043 -0.0587,-0.21469 -0.39381,-0.32668 -0.59428,-0.41806 -0.22811,-0.10396 -0.38152,-0.30154 -0.4625,-0.42943 l 2.71921,-1.34565 0.34572,-3.16519 -3.22254,0.0331 -1.6645,3.03031 c 0,0 -0.36094,-0.51626 -0.53434,-0.77153 -0.11218,-0.16523 -0.18634,-0.48542 -0.44338,-0.55294 -0.21528,-0.0565 -0.48002,0.178 -0.65939,0.30593 -0.20444,0.14581 -0.45241,0.17994 -0.60358,0.18603 l 0.19482,-3.02875 z m 1.80092,7.42745 0.6966,0.71727 -0.15761,0.64079 -0.33487,0.17363 -0.0325,-0.001 -0.45011,-0.44596 z m 2.16783,0.52607 -0.27286,0.9617 -0.63355,0.18345 -0.31781,-0.20309 -0.015,-0.0289 0.16123,-0.61236 z m -2.7373,0.84388 0.47594,0.45733 -0.0171,0.37672 -0.0176,0.0274 -0.61133,0.16692 -0.79943,-0.78342 z m 2.56676,0.51263 0.79944,0.78341 -0.96945,0.24495 -0.47594,-0.45734 0.0171,-0.37672 0.0176,-0.0274 z m -2.00091,0.72708 0.31781,0.20361 0.015,0.0284 -0.16123,0.61237 -1.07797,0.30075 0.27233,-0.9617 z m 1.05679,0.13953 0.0331,0.002 0.4501,0.44597 -0.27854,1.08417 -0.69711,-0.71727 0.15813,-0.64079 z" /></g></g></svg>
