<?xml version="1.0" encoding="UTF-8" standalone="no"?>
<!-- Created with Inkscape (http://www.inkscape.org/) -->

<svg
   width="31.855734mm"
   height="32.330692mm"
   viewBox="0 0 31.855734 32.330692"
   version="1.1"
   id="svg1"
   xml:space="preserve"
   xmlns:inkscape="http://www.inkscape.org/namespaces/inkscape"
   xmlns:sodipodi="http://sodipodi.sourceforge.net/DTD/sodipodi-0.dtd"
   xmlns="http://www.w3.org/2000/svg"
   xmlns:svg="http://www.w3.org/2000/svg"><sodipodi:namedview
     id="namedview1"
     pagecolor="#ffffff"
     bordercolor="#000000"
     borderopacity="0.25"
     inkscape:showpageshadow="2"
     inkscape:pageopacity="0.0"
     inkscape:pagecheckerboard="0"
     inkscape:deskcolor="#d1d1d1"
     inkscape:document-units="mm" /><defs
     id="defs1" /><g
     inkscape:label="Layer 1"
     inkscape:groupmode="layer"
     id="layer1"
     transform="translate(-63.464578,-109.57187)"><g
       id="g60"
       transform="translate(-34.802048,13.177474)"><path
         id="path55"
         style="fill:#7550e3;fill-opacity:1;stroke:#6940dc;stroke-width:2.94776;stroke-linecap:round;stroke-linejoin:round;stroke-opacity:1;paint-order:stroke markers fill"
         inkscape:transform-center-x="3.1924575"
         inkscape:transform-center-y="-1.896571"
         d="m 126.70008,122.95694 c -0.45472,0.5188 -1.59607,0.87968 -1.59607,0.87968 l -14.78722,3.35037 c 0,0 -0.76389,0.15586 -1.22967,-0.0443 -0.43432,-0.18644 -0.97875,-0.83828 -0.97875,-0.83828 l -8.03331,-13.49398 c 0,0 -0.376512,-0.77504 -0.326952,-1.3161 0.0436,-0.47557 0.437532,-1.1619 0.437532,-1.1619 l 10.38629,-11.850001 c 0,0 0.60628,-0.4038 1.11411,-0.51886 0.4754,-0.10771 1.25929,-0.079 1.25929,-0.079 l 14.13135,6.066631 c 0,0 0.79694,0.58667 1.12285,1.13414 0.34502,0.57956 0.44895,1.63488 0.44895,1.63488 l -1.35028,14.7403 c 0,0 -0.17478,1.01342 -0.59812,1.49642 z"
         sodipodi:nodetypes="sccsccsccsccsccs" /><path
         id="rect55"
         style="fill:#ffffff;fill-opacity:1;stroke:none;stroke-width:2.64583;stroke-linecap:round;stroke-linejoin:round;stroke-dasharray:none;stroke-opacity:1;paint-order:stroke markers fill"
         d="m 114.61098,103.78161 c -1.00489,-0.01 -1.89814,0.10812 -2.77916,0.33487 -1.8721,0.48182 -4.38217,3.75582 -5.19348,4.96507 -0.8113,1.20925 -0.88281,1.22839 -0.48214,1.55184 0.26976,0.21777 1.2687,-0.56138 2.0376,-1.32601 0.7689,-0.76465 3.34816,-3.09447 6.16449,-3.29231 2.89771,-0.20356 6.92437,2.2799 5.70559,5.65288 -1.00947,2.79372 -6.40323,4.11397 -4.91184,0.0238 1.48122,1.42023 4.36722,1.17648 3.50727,-1.5198 -0.79612,-2.49619 -4.37164,-2.66876 -6.40942,-1.90996 -3.06678,1.14198 -4.80802,4.47174 -4.2845,7.66207 1.28104,7.80668 13.10529,6.53835 15.50087,0.2222 0.24295,-0.64058 1.0237,-1.64821 0.41703,-2.07325 -0.53965,-0.3781 -1.06258,0.83244 -1.59681,1.29397 -1.94543,1.68069 -3.96571,3.56091 -6.60528,3.42977 -4.58154,-0.22762 -6.48073,-4.94347 -2.64583,-7.63416 -3.7899,7.98842 11.26554,7.14305 9.83092,-1.58699 -0.18611,-1.13251 -0.69612,-2.201 -1.41851,-3.08921 -0.8792,-1.081 -2.02621,-1.98563 -3.38688,-2.27532 -1.32803,-0.28276 -2.44502,-0.41978 -3.44992,-0.42943 z"
         sodipodi:nodetypes="ssssssscssssssscssss" /></g></g></svg>
