<?xml version="1.0" encoding="UTF-8" standalone="no"?>
<!-- Created with Inkscape (http://www.inkscape.org/) -->

<svg
   width="31.855742mm"
   height="32.330708mm"
   viewBox="0 0 31.855742 32.330708"
   version="1.1"
   id="svg1"
   xml:space="preserve"
   xmlns:inkscape="http://www.inkscape.org/namespaces/inkscape"
   xmlns:sodipodi="http://sodipodi.sourceforge.net/DTD/sodipodi-0.dtd"
   xmlns="http://www.w3.org/2000/svg"
   xmlns:svg="http://www.w3.org/2000/svg"><sodipodi:namedview
     id="namedview1"
     pagecolor="#ffffff"
     bordercolor="#000000"
     borderopacity="0.25"
     inkscape:showpageshadow="2"
     inkscape:pageopacity="0.0"
     inkscape:pagecheckerboard="0"
     inkscape:deskcolor="#d1d1d1"
     inkscape:document-units="mm" /><defs
     id="defs1" /><g
     inkscape:label="Layer 1"
     inkscape:groupmode="layer"
     id="layer1"
     transform="translate(-117.44924,-125.33558)"><g
       id="g59"
       transform="translate(-3.2343718,7.6454409)"><path
         id="path54"
         style="fill:#e3c708;stroke:#dfb300;stroke-width:2.94776;stroke-linecap:round;stroke-linejoin:round;paint-order:stroke markers fill"
         inkscape:transform-center-x="3.1924575"
         inkscape:transform-center-y="-1.896571"
         d="m 149.11707,144.25271 c -0.45471,0.5188 -1.59607,0.87968 -1.59607,0.87968 l -14.78722,3.35036 c 0,0 -0.76389,0.15587 -1.22967,-0.0443 -0.43432,-0.18645 -0.97875,-0.83829 -0.97875,-0.83829 l -8.03331,-13.49398 c 0,0 -0.37651,-0.77504 -0.32695,-1.3161 0.0436,-0.47557 0.43753,-1.1619 0.43753,-1.1619 l 10.38629,-11.85 c 0,0 0.60628,-0.4038 1.11411,-0.51886 0.4754,-0.10771 1.25929,-0.079 1.25929,-0.079 l 14.13135,6.06663 c 0,0 0.79694,0.58667 1.12285,1.13414 0.34502,0.57956 0.44895,1.63488 0.44895,1.63488 l -1.35028,14.7403 c 0,0 -0.17478,1.01342 -0.59812,1.49642 z"
         sodipodi:nodetypes="sccsccsccsccsccs" /><path
         id="path43"
         style="fill:#ffffff;fill-opacity:1;stroke:none;stroke-width:2.64583;stroke-linecap:round;stroke-linejoin:round;stroke-dasharray:none;stroke-opacity:1;paint-order:stroke markers fill"
         d="m 139.5093,124.9326 a 1.8814952,4.3005605 13.405735 0 0 -2.70243,3.30779 5.7938108,5.7938108 0 0 0 -4.35061,2.67592 4.3005605,1.8814952 13.405735 0 0 -4.17164,0.91978 4.3005605,1.8814952 13.405735 0 0 3.3083,2.70255 5.7938108,5.7938108 0 0 0 2.67591,4.35061 1.8814952,4.3005605 13.405735 0 0 0.91991,4.17114 1.8814952,4.3005605 13.405735 0 0 2.69929,-3.29686 5.7938108,5.7938108 0 0 0 4.36061,-2.67778 4.3005605,1.8814952 13.405735 0 0 4.16428,-0.92897 4.3005605,1.8814952 13.405735 0 0 -3.29796,-2.70807 5.7938108,5.7938108 0 0 0 -2.68362,-4.35615 1.8814952,4.3005605 13.405735 0 0 -0.92204,-4.15996 z m -4.67438,0.73781 c -0.15812,-0.0392 -0.34245,-0.009 -0.56488,0.072 -0.72683,0.24725 -0.65512,0.72486 -0.39665,1.292 0.18948,0.41573 0.87192,1.09556 1.3044,0.93084 0.46482,-0.17705 0.46079,-0.8576 0.28211,-1.4266 -0.17083,-0.54398 -0.36144,-0.80289 -0.62498,-0.86826 z m 8.67259,2.19505 c -0.29673,-0.0638 -0.57754,0.13698 -0.86618,0.42679 -0.32249,0.32368 -0.71856,1.20183 -0.41212,1.54861 0.32936,0.37267 0.96464,0.12933 1.43429,-0.23826 0.71878,-0.56216 0.7369,-0.9142 0.32684,-1.39363 -0.16752,-0.20394 -0.32741,-0.31008 -0.48283,-0.34351 z m 1.55263,2.3723 c -0.23054,-0.0563 -0.50541,0.0328 -0.80452,0.17479 -0.41277,0.19591 -1.08186,0.889 -0.91038,1.31884 0.18432,0.46194 0.86474,0.44733 1.43087,0.25975 0.86594,-0.28693 1.00169,-0.61263 0.77742,-1.2023 l 5.1e-4,1.2e-4 c -0.12122,-0.33885 -0.29048,-0.50154 -0.4939,-0.5512 z m -13.01583,-2.96248 c -0.23548,-0.057 -0.45087,0.0468 -0.69829,0.27291 -0.57692,0.50655 -0.32818,0.92069 0.12762,1.34577 0.33412,0.31162 1.2253,0.67876 1.56184,0.36109 0.36171,-0.34142 0.0974,-0.96854 -0.28542,-1.42588 -0.27447,-0.32793 -0.49799,-0.50359 -0.70575,-0.55389 z m 5.95552,3.99063 a 2.8073106,2.8073106 0 0 1 0.51635,0.17832 c 0.002,9.5e-4 0.004,0.002 0.006,0.003 a 2.8073106,2.8073106 0 0 1 0.46588,0.272 c 0.004,0.003 0.008,0.005 0.0124,0.008 a 2.8073106,2.8073106 0 0 1 1.11774,1.81655 c 0.001,0.006 0.002,0.0125 0.003,0.0188 a 2.8073106,2.8073106 0 0 1 0.0323,0.52884 c -3e-4,0.009 -9.7e-4,0.0171 -0.001,0.0257 a 2.8073106,2.8073106 0 0 1 -0.0726,0.52987 2.8073106,2.8073106 0 0 1 -0.0535,0.19336 c -1.1e-4,3.2e-4 -1.4e-4,6.9e-4 -2.4e-4,0.001 a 2.8073106,2.8073106 0 0 1 -0.34568,0.71925 c -8.2e-4,0.001 -0.002,0.002 -0.002,0.004 a 2.8073106,2.8073106 0 0 1 -0.1068,0.1472 c -0.0694,0.0898 -0.14457,0.17415 -0.2237,0.25427 a 2.8073106,2.8073106 0 0 1 -1.13528,0.69999 c -0.11064,0.0359 -0.22358,0.0662 -0.33871,0.0882 a 2.8073106,2.8073106 0 0 1 -0.17992,0.0283 c -0.001,1.9e-4 -0.003,3.7e-4 -0.004,5.5e-4 a 2.8073106,2.8073106 0 0 1 -0.19484,0.0173 c -7.1e-4,4e-5 -0.001,-1e-5 -0.002,3e-5 a 2.8073106,2.8073106 0 0 1 -0.19838,0.003 c -0.001,-3e-5 -0.003,8e-5 -0.004,5e-5 a 2.8073106,2.8073106 0 0 1 -0.59119,-0.0761 2.8073106,2.8073106 0 0 1 -0.50567,-0.17418 c -0.008,-0.004 -0.0158,-0.007 -0.0236,-0.0104 a 2.8073106,2.8073106 0 0 1 -0.45289,-0.26412 c -0.008,-0.006 -0.0158,-0.0111 -0.0236,-0.0168 a 2.8073106,2.8073106 0 0 1 -1.11172,-1.80609 c -0.002,-0.0113 -0.003,-0.0228 -0.005,-0.0342 a 2.8073106,2.8073106 0 0 1 -0.0317,-0.52232 c 2.6e-4,-0.007 9.8e-4,-0.014 0.001,-0.0209 a 2.8073106,2.8073106 0 0 1 0.0728,-0.533 2.8073106,2.8073106 0 0 1 0.17772,-0.51385 c 0.002,-0.003 0.003,-0.007 0.005,-0.0106 a 2.8073106,2.8073106 0 0 1 0.26843,-0.45982 c 0.005,-0.007 0.009,-0.0134 0.0143,-0.02 a 2.8073106,2.8073106 0 0 1 1.81083,-1.11378 c 0.008,-0.001 0.0162,-0.003 0.0243,-0.004 a 2.8073106,2.8073106 0 0 1 0.52934,-0.0322 c 0.006,2.2e-4 0.0119,8.1e-4 0.0178,0.001 a 2.8073106,2.8073106 0 0 1 0.53451,0.0732 z m 4.17652,7.4739 c -0.24418,-0.0523 -0.4729,-0.0405 -0.61223,0.0857 -0.36859,0.33397 -0.11686,0.96617 0.25653,1.43122 0.57113,0.71133 0.92351,0.72522 1.39783,0.30925 0.58715,-0.49466 0.34698,-0.91338 -0.10006,-1.3477 -0.19455,-0.18906 -0.58519,-0.40198 -0.94207,-0.47846 z m -11.19224,-2.63196 c -0.291,-0.0653 -0.66556,-0.003 -0.99817,0.11802 -0.85691,0.313 -0.98346,0.64261 -0.74145,1.22523 0.28037,0.71474 0.75422,0.62119 1.30889,0.33693 0.4066,-0.20835 1.05451,-0.92152 0.87009,-1.34597 -0.0805,-0.18533 -0.24026,-0.28955 -0.43936,-0.33421 z m 1.40677,2.10166 c -0.3482,-0.084 -0.8066,0.14729 -1.16072,0.45008 -0.69338,0.59285 -0.69672,0.94578 -0.26628,1.40701 l 1.2e-4,-5e-4 c 0.51257,0.57161 0.92345,0.31886 1.34373,-0.14139 0.3081,-0.33736 0.66607,-1.23198 0.34488,-1.56516 -0.0755,-0.0784 -0.16423,-0.12654 -0.26173,-0.15004 z m 7.4616,1.77945 c -0.094,-0.0201 -0.18396,-0.0179 -0.2647,0.0139 -0.46276,0.18231 -0.45092,0.86252 -0.26578,1.42944 0.28317,0.86721 0.60822,1.00469 1.19886,0.78297 0.72399,-0.25549 0.64722,-0.7323 0.38231,-1.29648 -0.15776,-0.33601 -0.6433,-0.84263 -1.05069,-0.92987 z" /></g></g></svg>
