<?xml version="1.0" encoding="UTF-8" standalone="no"?>
<!-- Created with Inkscape (http://www.inkscape.org/) -->

<svg
   width="31.85573mm"
   height="32.330685mm"
   viewBox="0 0 31.85573 32.330685"
   version="1.1"
   id="svg1"
   xml:space="preserve"
   xmlns:inkscape="http://www.inkscape.org/namespaces/inkscape"
   xmlns:sodipodi="http://sodipodi.sourceforge.net/DTD/sodipodi-0.dtd"
   xmlns="http://www.w3.org/2000/svg"
   xmlns:svg="http://www.w3.org/2000/svg"><sodipodi:namedview
     id="namedview1"
     pagecolor="#ffffff"
     bordercolor="#000000"
     borderopacity="0.25"
     inkscape:showpageshadow="2"
     inkscape:pageopacity="0.0"
     inkscape:pagecheckerboard="0"
     inkscape:deskcolor="#d1d1d1"
     inkscape:document-units="mm" /><defs
     id="defs1" /><g
     inkscape:label="Layer 1"
     inkscape:groupmode="layer"
     id="layer1"
     transform="translate(-61.655946,-69.650007)"><g
       id="g61"
       transform="translate(-7.940273,-8.447099)"><path
         id="path57"
         style="fill:#e04646;fill-opacity:1;stroke:#d73232;stroke-width:2.94776;stroke-linecap:round;stroke-linejoin:round;stroke-opacity:1;paint-order:stroke markers fill"
         inkscape:transform-center-x="3.1924575"
         inkscape:transform-center-y="-1.896571"
         d="m 98.029675,104.65964 c -0.45472,0.5188 -1.59607,0.87968 -1.59607,0.87968 l -14.78722,3.35037 c 0,0 -0.76389,0.15586 -1.22967,-0.0443 -0.43432,-0.18644 -0.97875,-0.83828 -0.97875,-0.83828 l -8.03331,-13.49398 c 0,0 -0.376512,-0.77504 -0.326952,-1.3161 0.0436,-0.47557 0.437532,-1.1619 0.437532,-1.1619 l 10.38629,-11.850001 c 0,0 0.60628,-0.4038 1.11411,-0.51886 0.4754,-0.10771 1.25929,-0.079 1.25929,-0.079 l 14.13135,6.066631 c 0,0 0.79694,0.58667 1.12285,1.13414 0.34502,0.57956 0.44895,1.63488 0.44895,1.63488 l -1.35028,14.7403 c 0,0 -0.17478,1.01342 -0.59812,1.49642 z"
         sodipodi:nodetypes="sccsccsccsccsccs" /><path
         id="rect57"
         style="fill:#ffffff;fill-opacity:1;stroke:none;stroke-width:2.64583;stroke-linecap:round;stroke-linejoin:round;stroke-dasharray:none;stroke-opacity:1;paint-order:stroke markers fill"
         d="m 84.898261,84.340569 1.852083,4.233333 c -1.784878,-0.04697 -3.481765,-0.421742 -5.027083,0.882117 -1.360799,1.148176 -1.240689,1.789434 -1.455208,3.880383 -1.631589,2.116663 -1.322496,1.189874 -1.631425,2.116667 -1.166859,3.500582 3.005553,6.350001 5.99705,6.350001 -1.718169,-2.858979 -0.992544,-2.968729 -1.058334,-3.968751 h 0.264584 c 0.488119,2.649761 2.693049,4.744591 5.291666,5.291661 0.045,-1.70983 1.417965,-1.47172 2.645834,-2.20503 1.200118,-0.71674 1.857023,-1.779079 2.292883,-3.086631 0.516779,-1.550338 0.689256,-3.860917 -0.264583,-5.291667 -0.52189,-0.782835 -0.94606,-1.597179 -1.896009,-2.116666 -0.054,-1.206381 -0.296163,-1.827381 -0.705383,-2.645834 -1.189099,-2.378184 -3.787828,-3.439583 -6.306075,-3.439583 z m 3.439583,6.085417 c 2.440648,0.192683 4.502533,2.868914 4.233334,5.291666 -0.19902,1.791136 -2.029639,3.086309 -3.704167,2.38125 1.594138,-1.234911 2.480601,-2.094428 0.617533,-3.439583 0.808519,-1.428293 0.621068,-2.147461 -1.1467,-4.233333 z" /></g></g></svg>
