<?xml version="1.0" encoding="UTF-8" standalone="no"?>
<!-- Created with Inkscape (http://www.inkscape.org/) -->

<svg
   width="31.855732mm"
   height="32.330685mm"
   viewBox="0 0 31.855733 32.330685"
   version="1.1"
   id="svg1"
   xml:space="preserve"
   sodipodi:docname="naive-icon.svg"
   inkscape:version="1.3 (0e150ed6c4, 2023-07-21)"
   xmlns:inkscape="http://www.inkscape.org/namespaces/inkscape"
   xmlns:sodipodi="http://sodipodi.sourceforge.net/DTD/sodipodi-0.dtd"
   xmlns="http://www.w3.org/2000/svg"
   xmlns:svg="http://www.w3.org/2000/svg"><sodipodi:namedview
     id="namedview1"
     pagecolor="#ffffff"
     bordercolor="#000000"
     borderopacity="0.25"
     inkscape:showpageshadow="2"
     inkscape:pageopacity="0.0"
     inkscape:pagecheckerboard="0"
     inkscape:deskcolor="#d1d1d1"
     inkscape:document-units="mm"
     inkscape:zoom="6.4088173"
     inkscape:cx="78.329585"
     inkscape:cy="41.583335"
     inkscape:window-width="1850"
     inkscape:window-height="1057"
     inkscape:window-x="1982"
     inkscape:window-y="-8"
     inkscape:window-maximized="1"
     inkscape:current-layer="layer1" /><defs
     id="defs1" /><g
     inkscape:label="Layer 1"
     inkscape:groupmode="layer"
     id="layer1"
     transform="translate(-103.39829,-50.101722)"><path
       id="path63"
       style="fill:#51c53c;fill-opacity:1;stroke:#3ea925;stroke-width:2.94776;stroke-linecap:round;stroke-linejoin:round;stroke-opacity:1;paint-order:stroke markers fill"
       inkscape:transform-center-x="3.1924575"
       inkscape:transform-center-y="-1.896571"
       d="m 131.83174,76.664263 c -0.45472,0.5188 -1.59607,0.87968 -1.59607,0.87968 l -14.78722,3.35037 c 0,0 -0.76389,0.15586 -1.22967,-0.0443 -0.43432,-0.18644 -0.97875,-0.83828 -0.97875,-0.83828 l -8.03331,-13.49398 c 0,0 -0.37651,-0.77504 -0.32695,-1.3161 0.0436,-0.47557 0.43753,-1.1619 0.43753,-1.1619 l 10.38629,-11.850001 c 0,0 0.60628,-0.4038 1.11411,-0.51886 0.4754,-0.10771 1.25929,-0.079 1.25929,-0.079 l 14.13135,6.066631 c 0,0 0.79694,0.58667 1.12285,1.13414 0.34502,0.57956 0.44895,1.63488 0.44895,1.63488 l -1.35028,14.7403 c 0,0 -0.17478,1.01342 -0.59812,1.49642 z"
       sodipodi:nodetypes="sccsccsccsccsccs" /><path
       id="path62"
       style="fill:#ffffff;fill-opacity:1;stroke:none;stroke-width:2.64583;stroke-linecap:round;stroke-linejoin:round;stroke-dasharray:none;stroke-opacity:1;paint-order:stroke markers fill"
       d="m 119.02597,57.434321 c -1.32084,0.02571 -2.56345,0.952728 -2.58951,1.955953 -1.01718,0.03766 -2.59414,-0.770302 -3.40289,0.779797 -0.70383,1.349006 0.60639,2.832409 1.45521,3.704167 -1.7925,0 -4.21393,0.517919 -3.6158,2.910416 0.21848,0.873927 0.94921,1.248519 1.65881,1.839165 -0.54301,4.553842 2.07658,4.983563 5.66115,2.394169 0,1.165032 0.0243,2.79092 0.83768,3.704166 1.25513,1.409272 3.9252,1.032991 4.45399,-0.79375 3.93661,0.829895 5.53449,-1.899981 1.85208,-5.29167 1.14501,0.331447 2.69294,0.528397 3.70417,-0.309025 1.57542,-1.304639 0.68551,-3.684094 -1.05833,-4.188892 0.94641,-1.56366 0.1902,-3.770194 -1.85209,-3.96875 -1.53424,-0.149163 -2.9118,0.878581 -3.96875,1.852083 -0.0413,-3.488036 -1.63878,-4.616973 -3.13572,-4.587833 z m -0.44545,5.107698 c 0.74145,-0.148005 0.97226,2.018896 1.19992,3.184302 -0.71175,-0.80032 -2.25179,-2.602032 -1.35495,-3.122807 0.0541,-0.03143 0.1056,-0.05163 0.15503,-0.0615 z m 5.80223,1.722376 c 0.1834,-0.01888 0.33149,0.0202 0.42478,0.139009 0.40118,0.510934 -1.81542,1.477576 -3.175,1.5875 0.50065,-0.475591 1.95546,-1.644706 2.75022,-1.726509 z m -5.54539,2.494596 c -0.61988,0.781684 -2.74954,2.054413 -2.99911,1.337855 -0.46614,-1.338392 1.81515,-1.254555 2.99911,-1.337855 z m 1.73683,0.290247 c 0.77994,0.883383 1.9001,2.937113 1.0697,3.216858 -0.87459,0.294632 -1.1294,-2.247173 -1.0697,-3.216858 z"
       sodipodi:nodetypes="scscsccsccscscssscssssscscsccsc" /></g></svg>
